# xmcd
#
# Track frame offsets:
#	150
#	13967
#	31472
#	44777
#	60542
#	77272
#	91017
#	106190
#	123425
#	139960
#
# Disc length: 2084 seconds
# Revision: 7
# Processed by: cddbd v1.5.2PL0 Copyright (c) Steve Scherf et al.
# Submitted via: dBpowerAMP V12.0
#
DISCID=7e08220a
DTITLE=Tanya Tucker - What Do I Do With Me
DYEAR=1991
DGENRE=Country
TTITLE0=If Your Heart Ain’t Busy Tonight
TTITLE1=Some Kind of Trouble
TTITLE2=(Without You) What Do I Do With Me
TTITLE3=Down to My Last Teardrop
TTITLE4=Everything That You Want
TTITLE5=Trail of Tears
TTITLE6=Bidding America Goodbye (The Auction)
TTITLE7=Time and Distance
TTITLE8=He Was Just Leaving
TTITLE9=Right About Now
EXTD=
EXTT0=
EXTT1=
EXTT2=
EXTT3=
EXTT4=
EXTT5=
EXTT6=
EXTT7=
EXTT8=
EXTT9=
PLAYORDER=
